<svg width="747" height="124" viewBox="0 0 747 124" fill="none" xmlns="http://www.w3.org/2000/svg">
<path fill-rule="evenodd" clip-rule="evenodd" d="M43.6679 99.3744C41.6389 106.272 38.9234 112.555 36.845 116.679C32.4455 125.404 26.8691 124.916 19.3598 102.119C18.21 103.576 17.1117 104.801 16.0655 105.759C9.07642 112.162 4.45852 104.347 3.00894 95.6649C1.78404 88.3364 1.40982 81.9726 2.68063 74.6934L2.53943 75.5573L19.6616 66.3368L28.5128 79.1541C28.8529 79.8685 29.351 80.692 29.8219 81.318L28.3159 85.5854L26.7905 89.0862L34.4258 85.3802L43.6679 99.3744ZM46.2666 42.0899L53.1639 33.174L46.2666 42.0899Z" fill="#808285"/>
<path fill-rule="evenodd" clip-rule="evenodd" d="M53.8884 32.7138C46.605 46.6266 45.6389 56.99 46.452 80.0489C46.7873 86.2575 45.4921 93.1493 43.6148 99.511L34.3776 85.5202L26.7186 89.2353L28.3094 85.5905C29.9885 80.8307 31.6648 76.0695 33.3426 71.309C34.7316 66.8692 36.1186 62.4279 37.5063 57.9867C39.6987 53.6936 41.8911 49.3978 44.0829 45.1019C47.0745 41.2262 50.0669 37.3505 53.0585 33.4734L53.8884 32.7138Z" fill="white"/>
<path fill-rule="evenodd" clip-rule="evenodd" d="M83.5155 1.8635C81.3954 3.99195 79.2593 6.13849 77.1177 8.29129C74.9092 9.04042 72.6792 9.88832 70.4381 10.8253C73.0479 7.92124 75.4261 4.93376 78.0164 1.64996L83.5155 1.8635Z" fill="white"/>
<path fill-rule="evenodd" clip-rule="evenodd" d="M55.0513 18.7485L59.1072 16.4517C71.6775 9.69628 84.1978 5.26966 94.3845 5.03247C94.5292 6.53421 94.6718 8.03526 94.8143 9.5363C81.9943 10.9699 76.719 11.7934 67.164 20.5055L52.6933 33.7693C42.796 45.1113 37.0541 56.1521 33.0997 71.3699L29.61 81.2686L19.7051 67.2347L2.53491 75.7631C2.58152 75.473 2.62881 75.1781 2.68098 74.8804C3.89615 67.7098 6.72086 62.4401 10.2933 57.537C19.8463 44.4234 38.2191 28.9928 55.0513 18.7485Z" fill="white"/>
<path d="M11.141 58.3048C9.39995 60.692 7.84118 63.1745 6.56759 65.9317C5.52284 68.193 4.67563 70.6442 4.08022 73.3904L19.1825 65.2577L19.9608 64.839L20.5089 65.632L29.3622 78.4499L29.4178 78.5487L32.1062 70.9246C34.1039 63.2573 36.5523 56.6326 39.7512 50.49C40.7056 48.6572 41.7246 46.8724 42.818 45.114L43.1422 44.4824L43.2548 44.3029L43.7007 43.7263C46.083 40.0592 48.8006 36.5028 51.9265 32.9199C52.2173 32.6257 52.4879 32.3968 52.7911 32.1193L64.4879 21.7761L58.9762 17.7439C56.8108 19.062 48.3736 24.1835 46.2117 25.6442C43.9163 27.1981 41.6564 28.8105 39.4501 30.4708C28.0962 39.0089 18.0397 48.8332 11.141 58.3048ZM64.4879 21.7761L66.9078 19.551C66.9078 19.551 75.1559 13.0091 79.4169 11.1534C83.308 9.45894 87.7123 9.13968 93.6546 8.46636L93.4445 6.25931C92.3497 6.31287 91.2437 6.41164 90.1259 6.55285C88.6479 6.74343 87.1225 7.00914 85.5567 7.34649C78.0112 8.97552 67.3759 13.3694 58.9762 17.7439L64.4879 21.7761ZM84.2386 2.75015L80.9757 6.02977C82.3655 5.64025 83.7336 5.29942 85.081 5.00798C86.6843 4.66298 88.2611 4.38892 89.8053 4.19207C91.3675 3.99244 92.8728 3.8742 94.3112 3.83803H94.3147L94.3349 3.83733L95.349 3.81646L95.4568 4.94538L95.8895 9.44781L96.0001 10.6018L94.9748 10.7158C88.6312 11.4253 84.1579 11.9832 80.1355 13.423C76.1505 14.851 72.5412 17.1763 67.869 21.436L67.867 21.4332L66.7526 22.4543L66.1593 22.9996L56.9604 16.2686L58.6291 15.372C62.3434 13.375 66.0571 11.5804 69.7088 10.0335L69.6664 9.96045C70.9692 8.51227 72.2031 7.05157 73.4294 5.554C74.6467 4.06826 75.8939 2.49279 77.1974 0.840112L77.5201 0.43042L78.0084 0.449896L83.5069 0.662046L84.2386 2.75015ZM76.5512 7.21781L80.8032 2.94213L78.4988 2.8524C77.3274 4.33675 76.1909 5.76546 75.0251 7.19138C74.8067 7.46126 74.5848 7.72836 74.3629 7.99477L74.8755 7.80766C75.0856 7.72975 75.4146 7.61359 75.8153 7.47309L76.5512 7.21781ZM44.6919 99.7831L44.6898 99.7894L44.6884 99.788C44.3921 100.799 44.0902 101.761 43.7904 102.681C43.4906 103.595 43.1693 104.53 42.8298 105.47C41.1486 110.153 39.2998 114.288 37.7869 117.289C35.2745 122.272 32.3225 124.561 28.7626 122.237C25.8342 120.328 22.5998 114.834 19.0009 104.359C18.8159 104.572 18.633 104.783 18.4493 104.983C17.8978 105.596 17.3357 106.166 16.7681 106.687C15.1461 108.172 13.6089 108.97 12.1739 109.21C10.8947 109.425 9.71018 109.205 8.62787 108.641C7.58173 108.092 6.64201 107.225 5.81846 106.12C3.93554 103.6 2.63134 99.7908 1.97055 95.8351C1.34732 92.1026 0.939713 88.6185 0.85068 85.149C0.788079 82.718 0.881981 80.2828 1.16508 77.7676L1.12543 77.7864L1.1463 77.6514L1.11291 77.6681L1.46557 75.5223C1.52191 75.1585 1.58034 74.7912 1.64363 74.4233L1.67354 74.4302C2.30373 70.8077 3.33457 67.6519 4.66102 64.7785C5.99722 61.8856 7.63668 59.2772 9.46882 56.7662C16.4962 47.1172 26.7051 37.1371 38.2112 28.4828C40.4503 26.7989 42.7359 25.1657 45.0557 23.5971C47.3511 22.0446 49.7104 20.5359 52.1171 19.0843L52.1199 19.078L52.1255 19.0745L56.9604 16.2686L66.1593 22.9996L62.6015 26.2605L54.7429 33.4631C51.2087 40.2436 49.2013 46.165 48.1802 53.177C47.1431 60.2886 47.1069 68.5714 47.509 80.0115H47.5103V80.0345L47.511 80.04C47.5618 80.9394 47.5764 81.8513 47.5597 82.7729C47.5451 83.6932 47.5006 84.6245 47.4283 85.5594C47.0826 90.0639 46.1067 94.7298 44.84 99.1599L44.8651 99.2002L44.6919 99.7831ZM18.6685 101.171L25.7953 88.7347L25.7501 88.6825L27.3165 85.092L28.5379 81.6245L19.3077 68.0198L3.47786 76.6185C3.06051 79.5483 2.91444 82.3542 2.98748 85.1671C3.07512 88.533 3.46742 91.8967 4.0677 95.4887C4.66381 99.0646 5.8115 102.461 7.43775 104.64C8.05263 105.465 8.7336 106.102 9.47369 106.488C10.1776 106.856 10.9525 107 11.7879 106.859C12.8618 106.677 14.0596 106.038 15.3819 104.827C15.8597 104.389 16.3731 103.864 16.9163 103.261C17.4505 102.67 17.9965 102.019 18.5558 101.31L18.6685 101.171ZM27.5579 90.1397L20.5667 102.341C24.1363 113.044 27.1753 118.489 29.7941 120.198C31.9984 121.636 34.035 119.803 35.9207 116.064C37.3988 113.131 39.2045 109.091 40.8468 104.519C41.1563 103.659 41.4693 102.749 41.783 101.79C42.0112 101.092 42.2337 100.395 42.4396 99.7136L34.0434 86.993L27.5579 90.1397ZM31.0434 81.107L31.058 81.1286L30.8257 81.7852L29.3204 86.0539L29.2877 86.1346L29.0526 86.6737L33.9843 84.2823L34.7654 83.9011L35.2912 84.6976L43.2514 96.7546C44.2551 92.9756 45.0091 89.0651 45.2984 85.2763C45.3659 84.3929 45.4097 83.5165 45.4222 82.6526C45.4375 81.7901 45.4236 80.9359 45.3777 80.0978H45.3791L45.3784 80.0797L45.3763 80.0512C44.9694 68.4483 45.0084 60.0263 46.074 52.72C46.7195 48.2851 47.7378 44.2779 49.2562 40.2443L45.3638 45.2865C45.1329 45.644 44.904 46.0036 44.678 46.3632L38.4707 58.5274L34.3466 71.73L34.3306 71.7752L31.0434 81.107Z" fill="#231F20"/>
<path d="M42.9367 53.9293C36.4728 72.7104 33.1208 93.2924 31.2748 114.564" stroke="#231F20" stroke-width="0.00095941" stroke-miterlimit="2"/>
<path d="M28.0533 111.18L31.7712 109.407L33.6944 111.792" stroke="#231F20" stroke-width="0.00095941" stroke-miterlimit="2"/>
<path d="M27.6852 105.007L32.6564 101.607L36.6414 105.212" stroke="#231F20" stroke-width="0.00095941" stroke-miterlimit="2"/>
<path d="M27.2019 96.8662L33.8745 91.9422L38.6308 98.0793" stroke="#231F20" stroke-width="0.00095941" stroke-miterlimit="2"/>
<path d="M36.8202 75.3518L41.9382 85.3777" stroke="#231F20" stroke-width="0.00095941" stroke-miterlimit="2"/>
<path d="M38.9371 66.884L41.766 75.0612" stroke="#231F20" stroke-width="0.00095941" stroke-miterlimit="2"/>
<path d="M36.7372 76.2952L32.1951 79.7738" stroke="#231F20" stroke-width="0.00095941" stroke-miterlimit="2"/>
<path d="M33.3687 46.7501L33.8924 55.2131" stroke="#231F20" stroke-width="0.00095941" stroke-miterlimit="2"/>
<path d="M20.1608 51.979L32.5579 47.7395" stroke="#231F20" stroke-width="0.00095941" stroke-miterlimit="2"/>
<path d="M16.5022 60.7169L26.789 55.7471L29.5574 64.5878" stroke="#231F20" stroke-width="0.00095941" stroke-miterlimit="2"/>
<path d="M56.737 24.016C52.1838 27.8444 47.2153 31.8078 43.2818 35.7454C34.951 44.079 28.6039 52.2875 23.3509 61.2805C18.2586 69.9974 14.1728 79.4746 11.7703 89.1062C10.5816 93.866 10.2714 99.4744 9.76013 104.432" stroke="#231F20" stroke-width="0.00095941" stroke-miterlimit="2"/>
<path d="M6.35461 79.6068L19.0384 69.1851L20.5617 80.8025" stroke="#231F20" stroke-width="0.00095941" stroke-miterlimit="2"/>
<path d="M7.229 88.5228L13.5879 82.3239L16.5935 88.511" stroke="#231F20" stroke-width="0.00095941" stroke-miterlimit="2"/>
<path d="M7.18298 96.0479L11.0601 92.1263L14.6812 97.4175" stroke="#231F20" stroke-width="0.00095941" stroke-miterlimit="2"/>
<path d="M31.4587 41.0791L39.3604 39.9391" stroke="#231F20" stroke-width="0.00095941" stroke-miterlimit="2"/>
<path d="M38.822 40.3532L39.4244 47.2345" stroke="#231F20" stroke-width="0.00095941" stroke-miterlimit="2"/>
<path d="M56.8025 31.9659H31.2517V15.226H101.107V31.9659H75.4306V108.367H56.8025V31.9659V31.9659Z" fill="white" stroke="#7F1C29" stroke-width="3" stroke-miterlimit="2" stroke-linejoin="round"/>
<path d="M111.166 15.226H149.682C157.904 15.226 164.387 17.4284 169.128 21.834C173.869 26.2392 176.239 33.9797 176.239 45.0559C176.239 52.8599 174.918 58.6496 172.274 62.4255C169.631 66.2015 166.044 69.0544 161.513 70.9843L178.882 108.367H159.876L144.899 73.8794C140.871 73.8794 135.836 73.7955 129.794 73.6273V108.367H111.166V15.226V15.226ZM146.409 58.9012C150.017 58.9012 152.786 57.8735 154.716 55.8175C156.646 53.7616 157.611 50.1747 157.611 45.0559C157.611 40.1054 156.646 36.6862 154.716 34.798C152.786 32.9098 150.017 31.9659 146.409 31.9659H129.794V58.9012H146.409Z" fill="white" stroke="#7F1C29" stroke-width="3" stroke-miterlimit="2" stroke-linejoin="round"/>
<path d="M208.72 15.226H190.091V108.367H208.72V15.226Z" fill="white" stroke="#7F1C29" stroke-width="3" stroke-miterlimit="2" stroke-linejoin="round"/>
<path d="M224.837 15.226H261.464C279.169 15.226 288.022 23.365 288.022 39.6438C288.022 45.182 286.889 49.6923 284.623 53.1745C282.357 56.6567 279.169 58.9434 275.057 60.0341C279.588 61.1249 283.386 63.5585 286.448 67.3344C289.511 71.1103 291.042 76.2287 291.042 82.6898C291.042 91.92 288.714 98.5071 284.057 102.451C279.4 106.395 272.414 108.367 263.1 108.367H224.837V15.226V15.226ZM261.59 53.6147C264.275 53.6147 266.394 52.6078 267.946 50.594C269.498 48.5803 270.274 45.8951 270.274 42.5389C270.274 38.8468 269.456 36.1617 267.82 34.4834C266.184 32.8051 264.023 31.9659 261.338 31.9659H243.465V53.6147H261.59V53.6147ZM262.596 91.6262C269.729 91.6262 273.295 87.5565 273.295 79.4175C273.295 75.8932 272.309 73.1033 270.337 71.0473C268.365 68.9914 265.785 67.9637 262.596 67.9637H243.465V91.6262H262.596Z" fill="white" stroke="#7F1C29" stroke-width="3" stroke-miterlimit="2" stroke-linejoin="round"/>
<path d="M326.418 108.996C320.376 108.996 315.09 107.653 310.559 104.968C306.028 102.283 303.762 96.7867 303.762 88.4795V36.4972C303.762 28.9453 305.839 23.5119 309.992 20.1974C314.146 16.883 319.16 15.226 325.034 15.226C337.872 15.226 351.298 15.7714 365.311 16.8622V32.4696H330.572C325.118 32.4696 322.39 35.0288 322.39 40.1475V53.6147L359.269 54.622V69.3482L322.39 70.3551V83.1935C322.39 88.7316 324.992 91.5006 330.194 91.5006H365.311V107.108C354.15 108.367 341.186 108.996 326.418 108.996V108.996Z" fill="white" stroke="#7F1C29" stroke-width="3" stroke-miterlimit="2" stroke-linejoin="round"/>
<path d="M378.891 15.226H415.518C433.223 15.226 442.075 23.365 442.075 39.6438C442.075 45.182 440.943 49.6923 438.677 53.1745C436.412 56.6567 433.223 58.9434 429.111 60.0341C433.643 61.1249 437.439 63.5585 440.502 67.3344C443.565 71.1103 445.096 76.2287 445.096 82.6898C445.096 91.92 442.768 98.5071 438.111 102.451C433.453 106.395 426.468 108.367 417.154 108.367H378.891V15.226V15.226ZM415.644 53.6147C418.329 53.6147 420.447 52.6078 422 50.594C423.552 48.5803 424.328 45.8951 424.328 42.5389C424.328 38.8468 423.51 36.1617 421.874 34.4834C420.238 32.8051 418.077 31.9659 415.392 31.9659H397.519V53.6147H415.644V53.6147ZM416.651 91.6262C423.783 91.6262 427.349 87.5565 427.349 79.4175C427.349 75.8932 426.363 73.1033 424.391 71.0473C422.419 68.9914 419.839 67.9637 416.651 67.9637H397.519V91.6262H416.651V91.6262Z" fill="white" stroke="#333333" stroke-width="3" stroke-miterlimit="2" stroke-linejoin="round"/>
<path d="M479.97 80.1728L451.902 15.226H471.286L489.662 61.167L507.913 15.226H526.541L498.598 80.1728V108.367H479.97V80.1728V80.1728Z" fill="white" stroke="#333333" stroke-width="3" stroke-miterlimit="2" stroke-linejoin="round"/>
<path d="M556.355 31.9659H530.804V15.226H600.66V31.9659H574.983V108.367H556.355V31.9659Z" fill="white" stroke="#333333" stroke-width="3" stroke-miterlimit="2" stroke-linejoin="round"/>
<path d="M632.132 108.996C626.091 108.996 620.804 107.653 616.273 104.968C611.742 102.283 609.476 96.7867 609.476 88.4795V36.4972C609.476 28.9453 611.553 23.5119 615.707 20.1974C619.86 16.883 624.874 15.226 630.748 15.226C643.586 15.226 657.012 15.7714 671.025 16.8622V32.4696H636.286C630.832 32.4696 628.105 35.0288 628.105 40.1475V53.6147L664.983 54.622V69.3482L628.105 70.3551V83.1935C628.105 88.7316 630.706 91.5006 635.908 91.5006H671.025V107.108C659.865 108.367 646.901 108.996 632.132 108.996V108.996Z" fill="white" stroke="#333333" stroke-width="3" stroke-miterlimit="2" stroke-linejoin="round"/>
<path d="M712.683 109.118C707.901 109.118 702.782 108.824 697.328 108.237C691.874 107.649 687.259 106.894 683.483 105.971V91.2445C690.951 91.9998 700.391 92.3775 711.803 92.3775C716.921 92.3775 720.781 91.6852 723.382 90.3007C725.983 88.9161 727.284 86.4617 727.284 82.9378V79.5391C727.284 76.77 726.466 74.6515 724.83 73.1831C723.193 71.7147 720.865 70.9803 717.844 70.9803H709.914C700.684 70.9803 693.783 68.9665 689.209 64.9389C684.637 60.911 682.35 54.3242 682.35 45.1779V40.6467C682.35 23.1932 692.377 14.4667 712.432 14.4667C717.131 14.4667 721.998 14.7813 727.032 15.4106C732.067 16.0398 736.598 16.7742 740.626 17.6134V32.3395C729.13 31.5842 720.445 31.2066 714.572 31.2066C709.789 31.2066 706.181 31.941 703.747 33.4094C701.314 34.8778 700.097 37.5839 700.097 41.528V44.045C700.097 47.2338 700.999 49.5623 702.803 51.0307C704.607 52.499 707.355 53.2335 711.047 53.2335H720.235C728.291 53.2335 734.437 55.4358 738.675 59.841C742.912 64.2467 745.031 70.0156 745.031 77.1477V82.4342C745.031 89.4828 743.731 94.9579 741.129 98.8595C738.528 102.761 734.878 105.447 730.179 106.915C725.48 108.383 719.648 109.118 712.683 109.118V109.118Z" fill="white" stroke="#333333" stroke-width="3" stroke-miterlimit="2" stroke-linejoin="round"/>
</svg>
